<svg width="37" height="25" fill="none" xmlns="http://www.w3.org/2000/svg"><path fill-rule="evenodd" clip-rule="evenodd" d="m11.615 24.822 7.517.136c.012 0 .036 0 .036.017 4.186.077 8.265-.165 12.439-.466 3.33-.23 4.12-2.612 4.533-5.454.514-3.431.628-6.904.359-10.36a166.79 166.79 0 0 1-.038-.493c-.25-3.306-.532-7.023-4.495-7.708-.844-.147-1.705-.277-2.56-.3-8.097-.26-16.266-.325-24.381.23C2.62.576 1.065 1.98.67 4.331a50.658 50.658 0 0 0-.459 12.88c.266 2.974.575 6.45 4.143 7.168 1.92.394 3.876.41 5.835.425.475.004.95.008 1.425.017Zm7.056-9.3-3.958 2.242V7.163c1.43.808 2.849 1.613 4.27 2.419 1.688.957 3.378 1.915 5.089 2.881a7174.704 7174.704 0 0 0-5.401 3.059Z" fill="red"/></svg>