<svg width="75" height="24" fill="none" xmlns="http://www.w3.org/2000/svg"><path fill-rule="evenodd" clip-rule="evenodd" d="M56.724 22.747c.084-.316.17-.642.265-1.02.073.1.13.181.18.253.066.092.118.166.173.236 1.56 2.022 4.706 1.668 5.669-.667.293-.707.526-1.48.562-2.234a133 133 0 0 0 .078-7.406c-.024-.96-.222-1.946-.527-2.865-.472-1.48-1.806-2.158-3.367-1.858-.98.2-1.74.72-2.326 1.516a3.987 3.987 0 0 1-.119.144c-.057.067-.129.151-.228.274V.866h-3.432v22.376h2.942l.13-.495Zm.432-3.084v-8.184c0-.69.335-1.209.885-1.575.73-.477 1.471-.235 1.74.584.144.454.258.938.258 1.404a391.359 391.359 0 0 1-.144 7.505c-.006.266-.12.531-.233.785-.27.607-.807.86-1.471.707-.676-.153-1.035-.56-1.035-1.226ZM47.827 7.505h3.594v15.748h-2.805c-.092-.54-.184-1.094-.29-1.73l-.033-.198c-.124.18-.215.318-.297.441v.001l-.127.19c-.933 1.326-2.255 1.78-3.816 1.538-1.333-.212-2.134-1.226-2.314-2.889a13.854 13.854 0 0 1-.078-1.492c-.008-2.457-.005-4.92-.002-7.38V11.725l.002-3.678v-.554h3.636v.643l-.001 2.67c-.002 2.67-.005 5.337.013 8.008 0 .507.054 1.032.144 1.539.101.518.484.707.998.672.832-.065 1.406-.672 1.406-1.486V8.2c-.03-.23-.03-.442-.03-.695Zm-21.134-.012H23.08l-.006.424c0 3.827 0 7.671.012 11.498 0 .478.048.95.113 1.427.24 1.527 1.023 2.459 2.303 2.647 1.596.242 2.906-.253 3.839-1.603.102-.16.203-.313.383-.578l.166.969v.002l.169.974h2.792V7.516h-3.594v11.988c-.006.82-.502 1.38-1.321 1.491-.592.077-.94-.112-1.077-.696a7.276 7.276 0 0 1-.155-1.527c-.018-2.648-.016-5.3-.014-7.955l.002-2.658v-.666ZM21.227 15.9c-.01.425-.035.849-.06 1.273l-.018.319-.035.425c-.123 1.547-.28 3.525-1.472 4.587-.831.73-1.884.996-2.972 1.032a9.298 9.298 0 0 1-1.46-.053c-2.29-.343-3.354-1.339-3.737-3.821-.437-2.866-.472-5.779.048-8.644.538-2.966 2.392-4.015 5.274-3.82 2.692.188 3.894 1.927 4.21 4.404.174 1.42.258 2.86.222 4.298Zm-3.656-1.407c-.002.288-.004.577-.004.864 0 .934-.037 1.868-.073 2.8-.017.428-.034.854-.047 1.28 0 .343-.12.69-.257 1.009-.173.413-.484.643-.957.643-.484 0-.855-.236-.998-.667-.373-1.11-.333-2.306-.293-3.484.01-.317.021-.632.024-.944.011-1.58.024-3.166.024-4.746 0-.217.063-.439.126-.656l.011-.04c.191-.62.562-.937 1.088-.95.539-.011.97.307 1.113.974.125.578.203 1.167.227 1.75.026.721.02 1.445.016 2.167ZM6.453 11.158c.227-1.101.45-2.19.69-3.282.192-.884.394-1.769.596-2.654.233-1.02.466-2.042.684-3.065.102-.466.293-.578.742-.566.684.025 1.378.02 2.092.015.29-.001.583-.003.88-.003-.308 1.115-.61 2.18-.907 3.228l-.08.28a2808.951 2808.951 0 0 0-3.056 10.743 3.267 3.267 0 0 0-.113.872 479.48 479.48 0 0 0-.003 3.91c.001.652.003 1.304.003 1.957v.637H4.47a7.973 7.973 0 0 0-.015-.177c-.011-.118-.022-.236-.022-.354 0-.354-.009-.708-.018-1.063-.02-.755-.039-1.51.03-2.256.225-2.301-.394-4.44-1.012-6.578-.09-.311-.18-.622-.267-.934-.455-1.622-.912-3.246-1.37-4.87l-1.37-4.87c-.026-.086-.044-.176-.062-.271a4.208 4.208 0 0 0-.051-.237h3.582A1460.95 1460.95 0 0 0 6.2 12.393l.254-1.235Zm62.377 5.344h6.052c0-.73.006-1.441.012-2.142.007-.82.015-1.628.011-2.439a9.933 9.933 0 0 0-.293-1.958c-.34-1.368-1.124-2.411-2.595-2.665a10.71 10.71 0 0 0-2.78-.1c-1.693.165-2.788 1.15-3.29 2.754-.126.389-.24.772-.305 1.173-.37 2.406-.305 4.829-.126 7.229.066.973.371 1.945.694 2.877.347.997 1.119 1.645 2.153 1.946 1.4.407 2.805.407 4.174-.124 1.74-.666 2.775-2.824 2.201-4.505-.694-.029-1.393-.066-2.102-.105h-.002l-.904-.048-.006.103c-.015.28-.026.5-.048.705a6.58 6.58 0 0 1-.114.766c-.167.779-.585 1.132-1.303 1.12-.688-.005-1.124-.341-1.214-1.126-.09-.814-.129-1.634-.167-2.479-.015-.324-.03-.65-.048-.982Zm2.613-2.07c0-.299 0-.594.002-.886.002-.862.004-1.696-.014-2.533 0-.265-.102-.543-.203-.796-.204-.495-.628-.63-1.137-.63-.508 0-.83.253-.956.707-.313 1.112-.287 2.245-.26 3.384.006.255.012.51.014.766.915-.011 1.747-.011 2.554-.011Zm-39.374-9.94h3.558l.006 18.738h3.523V4.474h3.534V1.65H32.069v2.842Z" fill="#fff"/></svg>